<mxfile host="app.diagrams.net" modified="2023-11-11T08:58:17.406Z" agent="Mozilla/5.0 (Macintosh; Intel Mac OS X 10_15_7) AppleWebKit/537.36 (KHTML, like Gecko) Chrome/119.0.0.0 Safari/537.36" version="22.1.0" etag="Q25skVLMasTlJ4Pwj_XL" type="github">
  <diagram name="Page-1" id="hfnd8v3ud_E6kuE6WOVg">
    <mxGraphModel>
      <root>
        <mxCell id="0" />
        <mxCell id="1" parent="0" />
      </root>
    </mxGraphModel>
  </diagram>
</mxfile>
